# Blender 3.3.1
# www.blender.org
mtllib Truncated_octahedron-Cut.mtl
o Truncated_octahedron-Cut
v 0.000000 -1.000000 2.000000
v 0.000000 -0.700000 2.000000
v -1.000000 -0.000000 2.000000
v -0.700000 -0.000000 2.000000
v 0.000000 0.700000 2.000000
v 0.000000 1.000000 2.000000
v 0.700000 -0.000000 2.000000
v 1.000000 -0.000000 2.000000
v -1.700000 0.300000 1.000000
v -2.000000 1.000000 0.000000
v -2.000000 -0.000000 1.000000
v -1.700000 1.000000 0.300000
v -1.000000 1.700000 0.300000
v -1.000000 2.000000 0.000000
v -0.300000 1.700000 1.000000
v -1.000000 0.300000 1.700000
v 0.000000 2.000000 1.000000
v -0.300000 1.000000 1.700000
v -0.300000 -1.700000 1.000000
v 0.000000 -2.000000 1.000000
v -0.300000 -1.000000 1.700000
v -1.000000 -1.700000 0.300000
v -1.000000 -2.000000 -0.000000
v -1.700000 -1.000000 0.300000
v -1.000000 -0.300000 1.700000
v -2.000000 -1.000000 -0.000000
v -1.700000 -0.300000 1.000000
v 0.300000 1.700000 1.000000
v 0.300000 1.000000 1.700000
v 1.000000 1.700000 0.300000
v 1.000000 2.000000 0.000000
v 1.700000 1.000000 0.300000
v 2.000000 1.000000 0.000000
v 1.000000 0.300000 1.700000
v 1.700000 0.300000 1.000000
v 2.000000 -0.000000 1.000000
v 0.300000 -1.700000 1.000000
v 0.300000 -1.000000 1.700000
v 1.000000 -2.000000 -0.000000
v 1.000000 -1.700000 0.300000
v 1.700000 -1.000000 0.300000
v 1.000000 -0.300000 1.700000
v 2.000000 -1.000000 -0.000000
v 1.700000 -0.300000 1.000000
v -2.000000 0.000000 -1.000000
v -1.000000 0.300000 -1.700000
v -1.000000 0.000000 -2.000000
v -0.300000 1.000000 -1.700000
v 0.000000 1.000000 -2.000000
v -1.700000 0.300000 -1.000000
v -0.300000 1.700000 -1.000000
v -1.700000 1.000000 -0.300000
v 0.000000 2.000000 -1.000000
v -1.000000 1.700000 -0.300000
v -2.000000 0.000000 -0.700000
v -2.000000 -0.700000 -0.000000
v -2.000000 -0.000000 0.700000
v -2.000000 0.700000 0.000000
v -0.700000 2.000000 0.000000
v 0.000000 2.000000 0.700000
v -0.300000 -1.700000 -1.000000
v 0.000000 -1.000000 -2.000000
v 0.000000 -2.000000 -1.000000
v -1.000000 -1.700000 -0.300000
v -0.300000 -1.000000 -1.700000
v -1.700000 -1.000000 -0.300000
v -1.000000 -0.300000 -1.700000
v -1.700000 -0.300000 -1.000000
v -0.700000 -2.000000 -0.000000
v 0.000000 -2.000000 -0.700000
v 0.700000 -2.000000 -0.000000
v 0.000000 -2.000000 0.700000
v 1.700000 0.300000 -1.000000
v 2.000000 0.000000 -1.000000
v 1.000000 0.000000 -2.000000
v 1.000000 0.300000 -1.700000
v 1.700000 1.000000 -0.300000
v 0.300000 1.000000 -1.700000
v 1.000000 1.700000 -0.300000
v 0.300000 1.700000 -1.000000
v 0.700000 2.000000 0.000000
v 2.000000 0.700000 0.000000
v 2.000000 -0.000000 0.700000
v 0.300000 -1.000000 -1.700000
v 1.000000 -0.300000 -1.700000
v 0.300000 -1.700000 -1.000000
v 1.700000 -0.300000 -1.000000
v 1.000000 -1.700000 -0.300000
v 1.700000 -1.000000 -0.300000
v 2.000000 -0.700000 -0.000000
v 0.000000 -0.700000 -2.000000
v -0.700000 0.000000 -2.000000
v 0.000000 0.700000 -2.000000
v 0.700000 0.000000 -2.000000
v 0.000000 2.000000 -0.700000
v 2.000000 0.000000 -0.700000
v 0.000929 2.000757 -0.698321
v 1.244972 0.154618 -0.419754
v -0.700000 2.000000 0.000000
v 0.000929 2.000757 -0.698321
v -1.000000 2.000000 0.000000
v 0.000000 2.000000 -1.000000
v 0.000929 2.000757 -0.698321
v 1.257247 0.157433 -0.427743
v 0.003069 2.000803 -0.701579
v 0.000000 2.000000 -1.000000
v 0.000000 2.000000 -1.000000
vn -0.0000 -0.0000 1.0000
vn -0.0000 1.0000 -0.0000
vn -0.5774 -0.5774 0.5774
vn -0.5774 -0.5774 0.5773
vn 0.5774 -0.5774 -0.5774
vn 0.5774 0.5773 0.5774
vn 0.5774 0.5774 -0.5774
vn -0.5774 0.5774 0.5774
vn -0.5774 0.5773 0.5774
vn 0.5774 0.5774 0.5774
vn -0.5774 0.5774 -0.5774
vn -0.5774 -0.5774 -0.5774
vn -0.5774 -0.5773 -0.5774
vn 0.5774 -0.5774 0.5774
vn 0.5774 -0.5774 0.5773
vn 0.8165 0.4082 -0.4082
vn -0.0000 -0.7071 -0.7071
vn -0.4082 -0.8165 0.4082
vn -0.0000 -0.7071 0.7071
vn -1.0000 -0.0000 -0.0000
vn -0.4082 -0.8165 -0.4082
vn 0.4082 -0.8165 0.4082
vn 0.4082 0.4082 0.8165
vn 0.7071 -0.0000 -0.7071
vn -0.4082 0.4082 -0.8165
vn -0.5774 0.5774 -0.5773
vn 0.5774 0.5774 -0.5773
vn -0.0000 -1.0000 -0.0000
vn 0.7071 -0.0000 0.7071
vn 0.4082 0.8165 0.4082
vn 0.7071 0.7071 -0.0000
vn -0.7071 -0.0000 -0.7071
vn 0.8165 -0.4082 -0.4082
vn 0.4082 -0.4082 0.8165
vn 0.4082 -0.8165 -0.4082
vn -0.8165 -0.4082 -0.4082
vn -0.7071 -0.0000 0.7071
vn -0.8165 -0.4082 0.4082
vn 0.7071 -0.7071 -0.0000
vn -0.0000 0.7071 -0.7071
vn -0.0000 -0.0000 -1.0000
vn -0.7071 -0.7071 -0.0000
vn 0.4082 -0.4082 -0.8165
vn -0.4082 -0.4082 0.8165
vn -0.8165 0.4082 0.4082
vn 0.8165 0.4082 0.4082
vn -0.7071 0.7071 -0.0000
vn -0.4082 0.8165 -0.4082
vn 0.4082 0.8165 -0.4082
vn -0.4082 -0.4082 -0.8165
vn -0.4082 0.4082 0.8165
vn -0.0000 0.7071 0.7071
vn -0.8165 0.4082 -0.4082
vn 0.4082 0.4082 -0.8165
vn 0.8165 -0.4082 0.4082
vn 0.3294 -0.9156 0.2306
vn -0.0000 -0.0000 -0.0000
vn 0.3424 -0.9149 0.2140
vn -0.4082 0.8165 0.4082
vn -0.0015 1.0000 -0.0010
vn 1.0000 -0.0000 -0.0000
s 0
f 1//1 2//1 3//1
f 3//1 2//1 4//1
f 4//1 5//1 3//1
f 5//1 6//1 3//1
f 1//1 7//1 2//1
f 7//1 8//1 5//1
f 1//1 8//1 7//1
f 5//1 8//1 6//1
f 53//1 102//1 107//1 106//1
f 81//2 31//2 53//2 95//2
f 21//3 19//3 20//3 1//3
f 20//4 19//4 22//4 23//4
f 26//3 23//3 22//3 24//3
f 85//5 84//5 62//5 75//5
f 36//6 33//6 32//6 35//6
f 78//7 49//7 53//7 80//7
f 16//8 3//8 6//8 18//8
f 11//3 27//3 25//3 3//3
f 9//9 12//9 10//9 11//9
f 6//10 29//10 28//10 17//10
f 10//11 52//11 50//11 45//11
f 61//12 65//12 62//12 63//12
f 67//12 47//12 62//12 65//12
f 9//8 11//8 3//8 16//8
f 26//13 45//13 68//13 66//13
f 23//12 26//12 66//12 64//12
f 8//14 1//14 38//14 42//14
f 86//5 63//5 62//5 84//5
f 47//11 46//11 48//11 49//11
f 76//7 73//7 74//7 75//7
f 40//15 37//15 20//15 39//15
f 8//10 36//10 35//10 34//10
f 77//7 33//7 74//7 73//7
f 56//16 57//16 27//16 24//16
f 28//17 29//17 18//17 15//17
f 81//18 95//18 80//18 79//18
f 80//19 51//19 48//19 78//19
f 53//11 49//11 48//11 51//11
f 43//14 36//14 44//14 41//14
f 33//10 31//10 30//10 32//10
f 64//12 61//12 63//12 23//12
f 50//11 46//11 47//11 45//11
f 28//10 30//10 31//10 17//10
f 55//20 45//20 26//20
f 55//20 26//20 56//20
f 57//20 56//20 26//20
f 11//20 57//20 26//20
f 58//20 45//20 55//20
f 10//20 58//20 57//20
f 10//20 45//20 58//20
f 10//20 57//20 11//20
f 60//21 81//21 30//21 28//21
f 54//22 51//22 95//22 59//22
f 67//23 65//23 91//23 92//23
f 16//24 25//24 27//24 9//24
f 2//25 7//25 42//25 38//25
f 39//14 43//14 41//14 40//14
f 14//26 53//26 51//26 54//26
f 31//7 33//7 77//7 79//7
f 6//10 8//10 34//10 29//10
f 43//5 39//5 88//5 89//5
f 53//27 31//27 79//27 80//27
f 69//28 23//28 63//28
f 69//28 63//28 70//28
f 39//28 71//28 70//28
f 39//28 70//28 63//28
f 20//28 72//28 71//28
f 20//28 69//28 72//28
f 20//28 71//28 39//28
f 20//28 23//28 69//28
f 50//29 68//29 67//29 46//29
f 69//30 70//30 61//30 64//30
f 24//31 22//31 64//31 66//31
f 44//32 42//32 34//32 35//32
f 44//14 36//14 8//14 42//14
f 11//3 26//3 24//3 27//3
f 39//5 63//5 86//5 88//5
f 37//14 38//14 1//14 20//14
f 21//3 1//3 3//3 25//3
f 14//11 54//11 52//11 10//11
f 12//33 9//33 57//33 58//33
f 93//34 48//34 46//34 92//34
f 59//35 60//35 15//35 13//35
f 35//36 32//36 82//36 83//36
f 74//5 87//5 85//5 75//5
f 87//5 74//5 43//5 89//5
f 68//12 45//12 47//12 67//12
f 17//8 14//8 13//8 15//8
f 6//8 17//8 15//8 18//8
f 76//7 75//7 49//7 78//7
f 73//37 76//37 85//37 87//37
f 96//38 82//38 77//38 73//38
f 52//39 54//39 13//39 12//39
f 34//32 42//32 7//32
f 18//17 29//17 5//17
f 21//40 2//40 38//40
f 4//24 25//24 16//24
f 47//41 91//41 62//41
f 92//41 91//41 47//41
f 92//41 49//41 93//41
f 47//41 49//41 92//41
f 91//41 94//41 62//41
f 49//41 94//41 93//41
f 94//41 75//41 62//41
f 49//41 75//41 94//41
f 32//42 30//42 79//42 77//42
f 19//40 21//40 38//40 37//40
f 10//8 12//8 13//8 14//8
f 16//43 18//43 5//43 4//43
f 93//44 94//44 76//44 78//44
f 87//45 89//45 90//45 96//45
f 52//39 12//39 58//39
f 54//39 59//39 13//39
f 9//24 27//24 57//24
f 28//17 15//17 60//17
f 55//46 56//46 66//46 68//46
f 41//47 89//47 88//47 40//47
f 40//48 71//48 72//48 37//48
f 22//49 19//49 72//49 69//49
f 19//40 37//40 72//40
f 69//31 64//31 22//31
f 66//31 56//31 24//31
f 29//50 34//50 7//50 5//50
f 84//51 85//51 94//51 91//51
f 65//52 61//52 86//52 84//52
f 41//53 44//53 83//53 90//53
f 79//42 30//42 81//42
f 77//42 82//42 32//42
f 44//32 35//32 83//32
f 21//54 25//54 4//54 2//54
f 50//55 52//55 58//55 55//55
f 90//47 89//47 41//47
f 40//47 88//47 71//47
f 95//19 51//19 80//19
f 78//19 48//19 93//19
f 67//29 92//29 46//29
f 68//29 50//29 55//29
f 61//52 70//52 86//52
f 91//52 65//52 84//52
f 87//37 96//37 73//37
f 85//37 76//37 94//37
f 95//56 53//56 97//56 59//56
f 59//1 97//1 100//1 99//1
f 53//1 14//1 101//1 102//1
f 97//57 53//57 103//57 100//1
f 95//58 104//58 105//58 98//58
f 71//59 88//59 86//59 70//59
f 107//60 101//60 99//60 103//60 105//60
f 99//2 101//2 17//2 60//2
f 31//2 81//2 60//2 17//2
f 90//61 83//61 36//61 43//61
f 36//61 83//61 82//61 33//61
f 96//61 74//61 33//61 82//61
f 74//61 96//61 90//61 43//61
l 82 90
l 59 81
