# Created by FreeCAD <http://www.freecadweb.org>
v -1.000000 0.000000 2.000000
v 1.000000 0.000000 2.000000
v 0.000000 1.000000 2.000000
v 0.000000 -1.000000 2.000000
v -1.000000 -2.000000 0.000000
v 0.000000 -2.000000 1.000000
v -2.000000 0.000000 1.000000
v -2.000000 -1.000000 0.000000
v 1.000000 -2.000000 0.000000
v 2.000000 -1.000000 0.000000
v 2.000000 0.000000 1.000000
v 2.000000 1.000000 0.000000
v 0.000000 2.000000 1.000000
v 1.000000 2.000000 0.000000
v -1.000000 2.000000 0.000000
v -2.000000 1.000000 0.000000
v 0.000000 -2.000000 -1.000000
v -1.000000 0.000000 -2.000000
v 0.000000 -1.000000 -2.000000
v -2.000000 0.000000 -1.000000
v 1.000000 0.000000 -2.000000
v 2.000000 0.000000 -1.000000
v 0.000000 1.000000 -2.000000
v 0.000000 2.000000 -1.000000
vn 0.000000 0.000000 1.000000
vn 0.000000 -0.000000 1.000000
vn -0.577350 -0.577350 0.577350
vn -0.577350 -0.577350 0.577350
vn -0.577350 -0.577350 0.577350
vn -0.577350 -0.577350 0.577350
vn 0.577350 -0.577350 0.577350
vn 0.577350 -0.577350 0.577350
vn 0.577350 -0.577350 0.577350
vn 0.577350 -0.577350 0.577350
vn 0.577350 0.577350 0.577350
vn 0.577350 0.577350 0.577350
vn 0.577350 0.577350 0.577350
vn 0.577350 0.577350 0.577350
vn -0.577350 0.577350 0.577350
vn -0.577350 0.577350 0.577350
vn -0.577350 0.577350 0.577350
vn -0.577350 0.577350 0.577350
vn 0.000000 -1.000000 -0.000000
vn 0.000000 -1.000000 0.000000
vn -0.577350 -0.577350 -0.577350
vn -0.577350 -0.577350 -0.577350
vn -0.577350 -0.577350 -0.577350
vn -0.577350 -0.577350 -0.577350
vn 0.577350 -0.577350 -0.577350
vn 0.577350 -0.577350 -0.577350
vn 0.577350 -0.577350 -0.577350
vn 0.577350 -0.577350 -0.577350
vn 0.000000 0.000000 -1.000000
vn 0.000000 0.000000 -1.000000
vn 0.577350 0.577350 -0.577350
vn 0.577350 0.577350 -0.577350
vn 0.577350 0.577350 -0.577350
vn 0.577350 0.577350 -0.577350
vn -0.577350 0.577350 -0.577350
vn -0.577350 0.577350 -0.577350
vn -0.577350 0.577350 -0.577350
vn -0.577350 0.577350 -0.577350
vn -1.000000 0.000000 0.000000
vn -1.000000 -0.000000 0.000000
f 1//1 2//1 3//1
f 4//2 2//2 1//2
f 1//3 5//3 6//3
f 1//4 6//4 4//4
f 7//5 8//5 5//5
f 7//6 5//6 1//6
f 9//7 2//7 6//7
f 6//8 2//8 4//8
f 10//9 11//9 9//9
f 9//10 11//10 2//10
f 3//11 12//11 13//11
f 13//12 12//12 14//12
f 2//13 11//13 3//13
f 3//14 11//14 12//14
f 1//15 15//15 16//15
f 1//16 16//16 7//16
f 3//17 13//17 15//17
f 3//18 15//18 1//18
f 6//19 5//19 17//19
f 6//20 17//20 9//20
f 5//21 18//21 17//21
f 17//22 18//22 19//22
f 8//23 20//23 5//23
f 5//24 20//24 18//24
f 9//25 17//25 19//25
f 9//26 19//26 21//26
f 10//27 21//27 22//27
f 10//28 9//28 21//28
f 18//29 23//29 19//29
f 23//30 21//30 19//30
f 12//31 22//31 21//31
f 14//32 21//32 23//32
f 14//33 12//33 21//33
f 24//34 14//34 23//34
f 16//35 23//35 18//35
f 16//36 18//36 20//36
f 15//37 24//37 23//37
f 15//38 23//38 16//38
f 16//39 8//39 7//39
f 16//40 20//40 8//40
