# Blender 3.3.1
# www.blender.org
mtllib Cell.mtl
o Thin_Cell
v -1.900000 0.100000 -1.000000
v -1.000000 0.000000 -2.000000
v -2.000000 0.000000 -1.000000
v -1.000000 0.100000 -1.900000
v 0.000000 1.000000 -2.000000
v -0.100000 1.000000 -1.900000
v -2.000000 1.000000 0.000000
v -1.900000 1.000000 -0.100000
v -1.000000 1.900000 -0.100000
v 0.000000 2.000000 -1.000000
v -0.100000 1.900000 -1.000000
v -1.000000 2.000000 0.000000
v -1.900000 0.100000 1.000000
v -2.000000 -0.000000 1.000000
v -1.000000 -0.000000 2.000000
v -1.000000 0.100000 1.900000
v -1.900000 1.000000 0.100000
v -0.100000 1.000000 1.900000
v -1.000000 1.900000 0.100000
v 0.000000 1.000000 2.000000
v -0.100000 1.900000 1.000000
v 0.000000 2.000000 1.000000
v 0.000000 2.000000 -0.900000
v -0.900000 2.000000 0.000000
v -2.000000 -0.900000 -0.000000
v -2.000000 -1.000000 -0.000000
v -2.000000 0.000000 -0.900000
v -2.000000 0.900000 0.000000
v -2.000000 -0.000000 0.900000
v 0.100000 1.900000 -1.000000
v 0.100000 1.000000 -1.900000
v 1.000000 2.000000 0.000000
v 1.000000 1.900000 -0.100000
v 1.000000 0.100000 -1.900000
v 1.000000 0.000000 -2.000000
v 1.900000 1.000000 -0.100000
v 1.900000 0.100000 -1.000000
v 2.000000 1.000000 0.000000
v 2.000000 0.000000 -1.000000
v -1.900000 -0.100000 -1.000000
v -1.900000 -1.000000 -0.100000
v -1.000000 -0.100000 -1.900000
v -1.000000 -1.900000 -0.100000
v 0.000000 -1.000000 -2.000000
v -0.100000 -1.000000 -1.900000
v -1.000000 -2.000000 -0.000000
v -0.100000 -1.900000 -1.000000
v 0.000000 -2.000000 -1.000000
v -0.900000 0.000000 -2.000000
v 0.000000 -0.900000 -2.000000
v 0.000000 0.900000 -2.000000
v 0.900000 0.000000 -2.000000
v -1.900000 -0.100000 1.000000
v -1.900000 -1.000000 0.100000
v -1.000000 -0.100000 1.900000
v -1.000000 -1.900000 0.100000
v -0.100000 -1.000000 1.900000
v 0.000000 -1.000000 2.000000
v -0.100000 -1.900000 1.000000
v 0.000000 -2.000000 1.000000
v -0.900000 -0.000000 2.000000
v 0.000000 -0.900000 2.000000
v 1.000000 -0.000000 2.000000
v 0.900000 -0.000000 2.000000
v 0.000000 0.900000 2.000000
v 0.100000 1.900000 1.000000
v 0.100000 1.000000 1.900000
v 1.000000 1.900000 0.100000
v 1.000000 0.100000 1.900000
v 1.900000 1.000000 0.100000
v 1.900000 0.100000 1.000000
v 2.000000 -0.000000 1.000000
v 0.000000 2.000000 0.900000
v 0.100000 -1.900000 -1.000000
v 1.000000 -2.000000 -0.000000
v 0.100000 -1.000000 -1.900000
v 1.000000 -1.900000 -0.100000
v 1.000000 -0.100000 -1.900000
v 1.900000 -1.000000 -0.100000
v 2.000000 -1.000000 -0.000000
v 1.900000 -0.100000 -1.000000
v 2.000000 0.000000 -0.900000
v 2.000000 -0.900000 -0.000000
v 2.000000 -0.000000 0.900000
v 2.000000 0.900000 0.000000
v 0.900000 2.000000 0.000000
v -0.900000 -2.000000 -0.000000
v 0.000000 -2.000000 -0.900000
v 0.900000 -2.000000 -0.000000
v 0.000000 -2.000000 0.900000
v 0.100000 -1.900000 1.000000
v 0.100000 -1.000000 1.900000
v 1.000000 -1.900000 0.100000
v 1.900000 -1.000000 0.100000
v 1.000000 -0.100000 1.900000
v 1.900000 -0.100000 1.000000
vn -0.5773 -0.5774 0.5774
vn -0.5774 -0.5774 0.5774
vn -0.5774 0.5774 -0.5774
vn 0.5773 -0.5774 -0.5774
vn -0.5774 0.5774 -0.5773
vn -0.5774 0.5774 0.5774
vn 0.5773 0.5774 0.5774
vn 0.5774 -0.5774 -0.5774
vn -0.5773 0.5774 0.5774
vn 0.5773 0.5774 -0.5774
vn 0.5774 0.5774 -0.5774
vn -1.0000 -0.0000 -0.0000
vn 0.5774 0.5774 -0.5773
vn 0.5774 0.5774 0.5774
vn 0.5774 -0.5774 0.5774
vn -0.5774 0.5773 0.5774
vn -0.0000 1.0000 -0.0000
vn 0.5774 0.5774 0.5773
vn -0.5774 -0.5774 0.5773
vn -0.5773 0.5774 -0.5774
vn -0.5774 -0.5774 -0.5774
vn -0.0000 -0.0000 -1.0000
vn -0.8165 0.4082 0.4082
vn -0.8165 -0.4082 0.4082
vn -0.4082 0.8165 0.4082
vn 0.8165 -0.4082 0.4082
vn -0.4082 -0.4082 0.8165
vn 0.7071 -0.0000 -0.7071
vn -0.5774 0.5774 0.5773
vn 0.5774 0.5773 -0.5774
vn -0.0000 -0.0000 1.0000
vn -0.5773 -0.5774 -0.5774
vn 0.5773 -0.5774 0.5774
vn -0.8165 0.4082 -0.4082
vn 0.7071 -0.0000 0.7071
vn -0.7071 0.7071 -0.0000
vn -0.4082 0.4082 -0.8165
vn 0.7071 0.7071 -0.0000
vn -0.0000 -0.7071 0.7071
vn -0.5774 -0.5773 -0.5774
vn 0.5774 -0.5774 0.5773
vn 1.0000 -0.0000 -0.0000
vn 0.4082 -0.8165 0.4082
vn -0.0000 -0.7071 -0.7071
vn 0.4082 -0.4082 0.8165
vn -0.0000 0.7071 -0.7071
vn -0.7071 -0.0000 0.7071
vn -0.0000 -1.0000 -0.0000
vn 0.4082 -0.8165 -0.4082
vn -0.4082 -0.4082 -0.8165
vn -0.4082 -0.8165 -0.4082
vn 0.4082 0.4082 -0.8165
vn -0.7071 -0.0000 -0.7071
vn 0.7071 -0.7071 -0.0000
vn 0.5774 0.5773 0.5774
vn 0.5774 -0.5773 -0.5774
vn -0.5774 0.5773 -0.5774
vn -0.0000 0.7071 0.7071
vn 0.4082 0.4082 0.8165
vn -0.7071 -0.7071 -0.0000
vn -0.4082 -0.8165 0.4082
vn 0.4082 -0.4082 -0.8165
vn 0.8165 0.4082 -0.4082
vn 0.8165 -0.4082 -0.4082
vn 0.8165 0.4082 0.4082
vn -0.4082 0.8165 -0.4082
vn -0.8165 -0.4082 -0.4082
vn 0.4082 0.8165 0.4082
vn -0.4082 0.4082 0.8165
vn 0.4082 0.8165 -0.4082
s 0
f 60//1 58//1 57//1 59//1
f 56//2 46//2 60//2 59//2
f 12//3 10//3 11//3 9//3
f 76//4 74//4 48//4 44//4
f 12//5 9//5 8//5 7//5
f 13//6 17//6 7//6 14//6
f 15//6 20//6 18//6 16//6
f 20//7 67//7 66//7 22//7
f 44//8 35//8 78//8 76//8
f 20//9 22//9 21//9 18//9
f 30//10 31//10 5//10 10//10
f 35//11 5//11 31//11 34//11
f 25//12 3//12 26//12
f 25//12 27//12 3//12
f 7//12 27//12 28//12
f 7//12 3//12 27//12
f 29//12 25//12 26//12
f 14//12 28//12 29//12
f 14//12 29//12 26//12
f 14//12 7//12 28//12
f 32//13 38//13 36//13 33//13
f 66//14 68//14 32//14 22//14
f 93//15 91//15 60//15 75//15
f 15//16 16//16 13//16 14//16
f 23//17 10//17 12//17 24//17
f 74//8 77//8 75//8 48//8
f 38//18 32//18 68//18 70//18
f 6//3 5//3 2//3 4//3
f 54//19 26//19 46//19 56//19
f 58//19 15//19 55//19 57//19
f 10//20 5//20 6//20 11//20
f 42//21 2//21 44//21 45//21
f 49//22 44//22 2//22
f 50//22 44//22 49//22
f 51//22 49//22 2//22
f 5//22 52//22 51//22
f 5//22 51//22 2//22
f 35//22 50//22 52//22
f 35//22 44//22 50//22
f 35//22 52//22 5//22
f 82//23 81//23 79//23 83//23
f 82//24 85//24 36//24 37//24
f 77//25 74//25 88//25 89//25
f 1//26 8//26 28//26 27//26
f 34//27 31//27 51//27 52//27
f 13//28 16//28 55//28 53//28
f 1//3 3//3 7//3 8//3
f 12//29 7//29 17//29 19//29
f 37//30 39//30 35//30 34//30
f 20//14 63//14 69//14 67//14
f 46//21 26//21 41//21 43//21
f 80//15 72//15 96//15 94//15
f 58//31 61//31 15//31
f 62//31 61//31 58//31
f 62//31 63//31 64//31
f 58//31 63//31 62//31
f 61//31 65//31 15//31
f 64//31 20//31 65//31
f 65//31 20//31 15//31
f 63//31 20//31 64//31
f 54//2 53//2 14//2 26//2
f 48//32 47//32 45//32 44//32
f 33//11 30//11 10//11 32//11
f 91//33 92//33 58//33 60//33
f 72//15 63//15 95//15 96//15
f 80//8 75//8 77//8 79//8
f 84//34 83//34 94//34 96//34
f 40//35 42//35 4//35 1//35
f 94//36 79//36 77//36 93//36
f 62//37 64//37 95//37 92//37
f 56//38 43//38 41//38 54//38
f 48//21 46//21 43//21 47//21
f 31//39 30//39 11//39 6//39
f 72//14 38//14 70//14 71//14
f 42//40 40//40 3//40 2//40
f 22//16 12//16 19//16 21//16
f 75//41 80//41 94//41 93//41
f 55//2 15//2 14//2 53//2
f 38//11 39//11 37//11 36//11
f 39//42 82//42 80//42
f 80//42 82//42 83//42
f 83//42 84//42 80//42
f 39//42 85//42 82//42
f 85//42 72//42 84//42
f 84//42 72//42 80//42
f 39//42 38//42 85//42
f 85//42 38//42 72//42
f 24//43 9//43 11//43 23//43
f 18//44 21//44 66//44 67//44
f 49//45 51//45 6//45 4//45
f 59//46 57//46 92//46 91//46
f 37//47 34//47 78//47 81//47
f 87//48 46//48 48//48
f 87//48 48//48 88//48
f 75//48 89//48 88//48
f 75//48 88//48 48//48
f 60//48 90//48 89//48
f 60//48 87//48 90//48
f 60//48 89//48 75//48
f 60//48 46//48 87//48
f 24//49 73//49 21//49 19//49
f 67//50 69//50 64//50 65//50
f 66//51 73//51 86//51 68//51
f 61//52 62//52 57//52 55//52
f 71//53 96//53 95//53 69//53
f 9//54 24//54 19//54
f 23//39 11//39 30//39
f 31//39 6//39 51//39
f 4//35 42//35 49//35
f 40//35 1//35 27//35
f 8//54 17//54 28//54
f 63//55 72//55 71//55 69//55
f 3//21 40//21 41//21 26//21
f 35//56 39//56 81//56 78//56
f 39//8 80//8 79//8 81//8
f 63//41 58//41 92//41 95//41
f 1//57 4//57 2//57 3//57
f 74//58 76//58 45//58 47//58
f 50//59 49//59 42//59 45//59
f 33//60 36//60 70//60 68//60
f 86//61 23//61 30//61 33//61
f 65//62 61//62 16//62 18//62
f 25//63 29//63 53//63 54//63
f 17//64 13//64 29//64 28//64
f 25//65 41//65 40//65 27//65
f 61//28 55//28 16//28
f 65//44 18//44 67//44
f 13//28 53//28 29//28
f 21//44 73//44 66//44
f 8//54 9//54 19//54 17//54
f 54//38 41//38 25//38
f 91//66 93//66 89//66 90//66
f 71//67 70//67 85//67 84//67
f 88//68 47//68 43//68 87//68
f 52//69 50//69 76//69 78//69
f 86//60 33//60 68//60
f 78//47 34//47 52//47
f 81//47 82//47 37//47
f 36//60 85//60 70//60
f 56//70 59//70 90//70 87//70
f 45//58 76//58 50//58
f 74//58 47//58 88//58
f 43//38 56//38 87//38
f 59//46 91//46 90//46
f 57//46 62//46 92//46
f 95//53 64//53 69//53
f 84//53 96//53 71//53
f 93//36 77//36 89//36
f 83//36 79//36 94//36
